<mxfile host="app.diagrams.net" modified="2023-06-12T02:11:35.116Z" agent="Mozilla/5.0 (Macintosh; Intel Mac OS X 10_15_7) AppleWebKit/537.36 (KHTML, like Gecko) Chrome/114.0.0.0 Safari/537.36" etag="TrxC-fY86p2hGyzEUeKp" version="21.3.8" type="device">
  <diagram name="Page-1" id="1AKbSjMBSUuuEfj9E9SA">
    <mxGraphModel dx="2029" dy="1832" grid="1" gridSize="10" guides="1" tooltips="1" connect="1" arrows="1" fold="1" page="1" pageScale="1" pageWidth="850" pageHeight="1100" math="0" shadow="0">
      <root>
        <mxCell id="0" />
        <mxCell id="1" parent="0" />
        <mxCell id="BENiIRmYBRF5UTRzjcfX-1" value="" style="rounded=0;whiteSpace=wrap;html=1;" parent="1" vertex="1">
          <mxGeometry x="445" y="-190" width="120" height="60" as="geometry" />
        </mxCell>
        <mxCell id="BENiIRmYBRF5UTRzjcfX-2" value="" style="rounded=0;whiteSpace=wrap;html=1;" parent="1" vertex="1">
          <mxGeometry x="120" y="357.5" width="120" height="60" as="geometry" />
        </mxCell>
        <mxCell id="BENiIRmYBRF5UTRzjcfX-3" value="" style="rounded=0;whiteSpace=wrap;html=1;" parent="1" vertex="1">
          <mxGeometry x="465" y="500" width="120" height="60" as="geometry" />
        </mxCell>
        <mxCell id="BENiIRmYBRF5UTRzjcfX-4" value="Control Tower" style="text;html=1;strokeColor=none;fillColor=none;align=center;verticalAlign=middle;whiteSpace=wrap;rounded=0;" parent="1" vertex="1">
          <mxGeometry x="465" y="-175" width="60" height="30" as="geometry" />
        </mxCell>
        <mxCell id="BENiIRmYBRF5UTRzjcfX-5" value="Security OU" style="text;html=1;strokeColor=none;fillColor=none;align=center;verticalAlign=middle;whiteSpace=wrap;rounded=0;" parent="1" vertex="1">
          <mxGeometry x="150" y="372.5" width="60" height="30" as="geometry" />
        </mxCell>
        <mxCell id="BENiIRmYBRF5UTRzjcfX-6" value="Finance-OU" style="text;html=1;strokeColor=none;fillColor=none;align=center;verticalAlign=middle;whiteSpace=wrap;rounded=0;" parent="1" vertex="1">
          <mxGeometry x="485" y="515" width="80" height="30" as="geometry" />
        </mxCell>
        <mxCell id="BENiIRmYBRF5UTRzjcfX-7" value="" style="rounded=0;whiteSpace=wrap;html=1;" parent="1" vertex="1">
          <mxGeometry x="50" y="475" width="120" height="60" as="geometry" />
        </mxCell>
        <mxCell id="BENiIRmYBRF5UTRzjcfX-8" value="Log_Archive" style="text;html=1;strokeColor=none;fillColor=none;align=center;verticalAlign=middle;whiteSpace=wrap;rounded=0;" parent="1" vertex="1">
          <mxGeometry x="90" y="487.5" width="60" height="35" as="geometry" />
        </mxCell>
        <mxCell id="BENiIRmYBRF5UTRzjcfX-10" value="" style="rounded=0;whiteSpace=wrap;html=1;" parent="1" vertex="1">
          <mxGeometry x="190" y="475" width="120" height="60" as="geometry" />
        </mxCell>
        <mxCell id="BENiIRmYBRF5UTRzjcfX-9" value="Audit" style="text;html=1;strokeColor=none;fillColor=none;align=center;verticalAlign=middle;whiteSpace=wrap;rounded=0;" parent="1" vertex="1">
          <mxGeometry x="220" y="487.5" width="60" height="35" as="geometry" />
        </mxCell>
        <mxCell id="BENiIRmYBRF5UTRzjcfX-11" value="" style="rounded=0;whiteSpace=wrap;html=1;" parent="1" vertex="1">
          <mxGeometry x="460" y="626" width="120" height="60" as="geometry" />
        </mxCell>
        <mxCell id="BENiIRmYBRF5UTRzjcfX-12" value="Finance-Prod" style="text;html=1;strokeColor=none;fillColor=none;align=center;verticalAlign=middle;whiteSpace=wrap;rounded=0;" parent="1" vertex="1">
          <mxGeometry x="480" y="638.5" width="80" height="35" as="geometry" />
        </mxCell>
        <mxCell id="BENiIRmYBRF5UTRzjcfX-15" value="" style="sketch=0;outlineConnect=0;fontColor=#232F3E;gradientColor=none;fillColor=#3F8624;strokeColor=none;dashed=0;verticalLabelPosition=bottom;verticalAlign=top;align=center;html=1;fontSize=12;fontStyle=0;aspect=fixed;pointerEvents=1;shape=mxgraph.aws4.file_cache_s3_linked_datasets;" parent="1" vertex="1">
          <mxGeometry x="72" y="595.5" width="78" height="78" as="geometry" />
        </mxCell>
        <mxCell id="BENiIRmYBRF5UTRzjcfX-16" value="" style="rounded=0;whiteSpace=wrap;html=1;" parent="1" vertex="1">
          <mxGeometry x="450" y="50" width="120" height="60" as="geometry" />
        </mxCell>
        <mxCell id="BENiIRmYBRF5UTRzjcfX-17" value="AWS Organizations" style="text;html=1;strokeColor=none;fillColor=none;align=center;verticalAlign=middle;whiteSpace=wrap;rounded=0;" parent="1" vertex="1">
          <mxGeometry x="480" y="65" width="60" height="30" as="geometry" />
        </mxCell>
        <mxCell id="BENiIRmYBRF5UTRzjcfX-23" value="" style="endArrow=none;html=1;rounded=0;" parent="1" edge="1">
          <mxGeometry width="50" height="50" relative="1" as="geometry">
            <mxPoint x="919.52" y="673.5" as="sourcePoint" />
            <mxPoint x="919.52" y="483.5" as="targetPoint" />
          </mxGeometry>
        </mxCell>
        <mxCell id="BENiIRmYBRF5UTRzjcfX-27" value="Sarah" style="shape=umlActor;verticalLabelPosition=bottom;verticalAlign=top;html=1;outlineConnect=0;" parent="1" vertex="1">
          <mxGeometry x="325" y="941.5" width="30" height="60" as="geometry" />
        </mxCell>
        <mxCell id="7qDltlr72wTFYklxuotV-1" value="" style="rounded=0;whiteSpace=wrap;html=1;" parent="1" vertex="1">
          <mxGeometry x="1008" y="511.25" width="120" height="60" as="geometry" />
        </mxCell>
        <mxCell id="7qDltlr72wTFYklxuotV-2" value="Marketing -OU" style="text;html=1;strokeColor=none;fillColor=none;align=center;verticalAlign=middle;whiteSpace=wrap;rounded=0;" parent="1" vertex="1">
          <mxGeometry x="1028" y="526.25" width="80" height="30" as="geometry" />
        </mxCell>
        <mxCell id="7qDltlr72wTFYklxuotV-3" value="Marketing-Prod" style="rounded=0;whiteSpace=wrap;html=1;" parent="1" vertex="1">
          <mxGeometry x="1008" y="649.75" width="120" height="60" as="geometry" />
        </mxCell>
        <mxCell id="7qDltlr72wTFYklxuotV-7" value="" style="endArrow=none;html=1;rounded=0;" parent="1" edge="1">
          <mxGeometry width="50" height="50" relative="1" as="geometry">
            <mxPoint x="1278" y="688.75" as="sourcePoint" />
            <mxPoint x="1278" y="498.75" as="targetPoint" />
          </mxGeometry>
        </mxCell>
        <mxCell id="7qDltlr72wTFYklxuotV-8" value="" style="rounded=0;whiteSpace=wrap;html=1;" parent="1" vertex="1">
          <mxGeometry x="1358" y="503.75" width="120" height="60" as="geometry" />
        </mxCell>
        <mxCell id="7qDltlr72wTFYklxuotV-9" value="Operations-OU" style="text;html=1;strokeColor=none;fillColor=none;align=center;verticalAlign=middle;whiteSpace=wrap;rounded=0;" parent="1" vertex="1">
          <mxGeometry x="1378" y="518.75" width="90" height="30" as="geometry" />
        </mxCell>
        <mxCell id="7qDltlr72wTFYklxuotV-10" value="Operations-Prod" style="rounded=0;whiteSpace=wrap;html=1;" parent="1" vertex="1">
          <mxGeometry x="1358" y="629.75" width="120" height="60" as="geometry" />
        </mxCell>
        <mxCell id="7qDltlr72wTFYklxuotV-12" value="finance-UG" style="rounded=0;whiteSpace=wrap;html=1;" parent="1" vertex="1">
          <mxGeometry x="460" y="848.5" width="120" height="60" as="geometry" />
        </mxCell>
        <mxCell id="7qDltlr72wTFYklxuotV-14" value="" style="endArrow=none;html=1;rounded=0;" parent="1" target="7qDltlr72wTFYklxuotV-15" edge="1">
          <mxGeometry width="50" height="50" relative="1" as="geometry">
            <mxPoint x="60" y="350" as="sourcePoint" />
            <mxPoint x="1530" y="350" as="targetPoint" />
          </mxGeometry>
        </mxCell>
        <mxCell id="7qDltlr72wTFYklxuotV-15" value="Organizational&amp;nbsp;&lt;br&gt;Hierachy" style="text;html=1;strokeColor=none;fillColor=none;align=center;verticalAlign=middle;whiteSpace=wrap;rounded=0;" parent="1" vertex="1">
          <mxGeometry x="1500" y="330" width="60" height="30" as="geometry" />
        </mxCell>
        <mxCell id="7qDltlr72wTFYklxuotV-16" value="User&amp;nbsp;&lt;br&gt;Hierachy&lt;br&gt;&lt;br&gt;-------------&lt;br&gt;User Groups Created using OKTA" style="text;html=1;strokeColor=none;fillColor=none;align=center;verticalAlign=middle;whiteSpace=wrap;rounded=0;" parent="1" vertex="1">
          <mxGeometry x="1540" y="768.5" width="60" height="30" as="geometry" />
        </mxCell>
        <mxCell id="7qDltlr72wTFYklxuotV-18" value="marketing-UG" style="rounded=0;whiteSpace=wrap;html=1;" parent="1" vertex="1">
          <mxGeometry x="1008" y="848.5" width="120" height="60" as="geometry" />
        </mxCell>
        <mxCell id="7qDltlr72wTFYklxuotV-20" value="operations-UG" style="rounded=0;whiteSpace=wrap;html=1;" parent="1" vertex="1">
          <mxGeometry x="1363" y="848.5" width="120" height="60" as="geometry" />
        </mxCell>
        <mxCell id="7qDltlr72wTFYklxuotV-21" value="" style="endArrow=classic;html=1;rounded=0;entryX=0.483;entryY=-0.053;entryDx=0;entryDy=0;entryPerimeter=0;" parent="1" target="7qDltlr72wTFYklxuotV-20" edge="1">
          <mxGeometry width="50" height="50" relative="1" as="geometry">
            <mxPoint x="1423" y="689.75" as="sourcePoint" />
            <mxPoint x="1473" y="639.75" as="targetPoint" />
          </mxGeometry>
        </mxCell>
        <mxCell id="7qDltlr72wTFYklxuotV-23" value="Lucien" style="shape=umlActor;verticalLabelPosition=bottom;verticalAlign=top;html=1;outlineConnect=0;" parent="1" vertex="1">
          <mxGeometry x="506" y="950" width="30" height="60" as="geometry" />
        </mxCell>
        <mxCell id="7qDltlr72wTFYklxuotV-24" value="Ejikeme" style="shape=umlActor;verticalLabelPosition=bottom;verticalAlign=top;html=1;outlineConnect=0;" parent="1" vertex="1">
          <mxGeometry x="775" y="960" width="30" height="60" as="geometry" />
        </mxCell>
        <mxCell id="7qDltlr72wTFYklxuotV-26" value="" style="endArrow=classic;html=1;rounded=0;exitX=0.5;exitY=1;exitDx=0;exitDy=0;" parent="1" edge="1" source="7qDltlr72wTFYklxuotV-22">
          <mxGeometry width="50" height="50" relative="1" as="geometry">
            <mxPoint x="520.5" y="818.5" as="sourcePoint" />
            <mxPoint x="521" y="848.5" as="targetPoint" />
          </mxGeometry>
        </mxCell>
        <mxCell id="7qDltlr72wTFYklxuotV-27" value="Admin" style="text;html=1;strokeColor=none;fillColor=none;align=center;verticalAlign=middle;whiteSpace=wrap;rounded=0;" parent="1" vertex="1">
          <mxGeometry x="490" y="1019.5" width="60" height="30" as="geometry" />
        </mxCell>
        <mxCell id="7qDltlr72wTFYklxuotV-28" value="user" style="text;html=1;strokeColor=none;fillColor=none;align=center;verticalAlign=middle;whiteSpace=wrap;rounded=0;" parent="1" vertex="1">
          <mxGeometry x="760" y="1010" width="60" height="30" as="geometry" />
        </mxCell>
        <mxCell id="7qDltlr72wTFYklxuotV-29" value="user" style="text;html=1;strokeColor=none;fillColor=none;align=center;verticalAlign=middle;whiteSpace=wrap;rounded=0;" parent="1" vertex="1">
          <mxGeometry x="310" y="1011" width="60" height="30" as="geometry" />
        </mxCell>
        <mxCell id="7qDltlr72wTFYklxuotV-30" value="tanyilucien+1@gmail.com" style="text;html=1;strokeColor=none;fillColor=none;align=center;verticalAlign=middle;whiteSpace=wrap;rounded=0;" parent="1" vertex="1">
          <mxGeometry x="830" y="649.75" width="60" height="30" as="geometry" />
        </mxCell>
        <mxCell id="7qDltlr72wTFYklxuotV-85" value="" style="edgeStyle=orthogonalEdgeStyle;rounded=0;orthogonalLoop=1;jettySize=auto;html=1;" parent="1" target="7qDltlr72wTFYklxuotV-12" edge="1">
          <mxGeometry relative="1" as="geometry">
            <mxPoint x="520" y="830" as="sourcePoint" />
          </mxGeometry>
        </mxCell>
        <mxCell id="7qDltlr72wTFYklxuotV-33" value="jeffreyugwu019+3@gmail.com" style="text;html=1;strokeColor=none;fillColor=none;align=center;verticalAlign=middle;whiteSpace=wrap;rounded=0;" parent="1" vertex="1">
          <mxGeometry x="1483" y="684.75" width="60" height="30" as="geometry" />
        </mxCell>
        <mxCell id="7qDltlr72wTFYklxuotV-34" value="oyebola.sarah.o+1@gmail.com" style="text;html=1;strokeColor=none;fillColor=none;align=center;verticalAlign=middle;whiteSpace=wrap;rounded=0;" parent="1" vertex="1">
          <mxGeometry x="1138" y="701.25" width="60" height="30" as="geometry" />
        </mxCell>
        <mxCell id="7qDltlr72wTFYklxuotV-35" value="tanyilucien+2@gmail.com" style="text;html=1;strokeColor=none;fillColor=none;align=center;verticalAlign=middle;whiteSpace=wrap;rounded=0;" parent="1" vertex="1">
          <mxGeometry x="500" y="1040" width="60" height="30" as="geometry" />
        </mxCell>
        <mxCell id="7qDltlr72wTFYklxuotV-36" value="oyebola.sarah.o+2@gmail.com" style="text;html=1;strokeColor=none;fillColor=none;align=center;verticalAlign=middle;whiteSpace=wrap;rounded=0;" parent="1" vertex="1">
          <mxGeometry x="315" y="1040" width="60" height="30" as="geometry" />
        </mxCell>
        <mxCell id="7qDltlr72wTFYklxuotV-39" value="" style="rounded=0;whiteSpace=wrap;html=1;" parent="1" vertex="1">
          <mxGeometry x="1078" y="371.25" width="120" height="60" as="geometry" />
        </mxCell>
        <mxCell id="7qDltlr72wTFYklxuotV-40" value="Sandbox&amp;nbsp;&lt;br&gt;OU&lt;br&gt;" style="text;html=1;strokeColor=none;fillColor=none;align=center;verticalAlign=middle;whiteSpace=wrap;rounded=0;" parent="1" vertex="1">
          <mxGeometry x="1108" y="386.25" width="60" height="30" as="geometry" />
        </mxCell>
        <mxCell id="7qDltlr72wTFYklxuotV-41" value="" style="endArrow=classic;html=1;rounded=0;" parent="1" target="7qDltlr72wTFYklxuotV-1" edge="1">
          <mxGeometry width="50" height="50" relative="1" as="geometry">
            <mxPoint x="1138" y="431.25" as="sourcePoint" />
            <mxPoint x="1188" y="381.25" as="targetPoint" />
          </mxGeometry>
        </mxCell>
        <mxCell id="7qDltlr72wTFYklxuotV-42" value="" style="endArrow=classic;html=1;rounded=0;exitX=0.5;exitY=1;exitDx=0;exitDy=0;entryX=0.537;entryY=-0.018;entryDx=0;entryDy=0;entryPerimeter=0;" parent="1" source="7qDltlr72wTFYklxuotV-39" target="7qDltlr72wTFYklxuotV-8" edge="1">
          <mxGeometry width="50" height="50" relative="1" as="geometry">
            <mxPoint x="1148" y="441.25" as="sourcePoint" />
            <mxPoint x="1097" y="521.25" as="targetPoint" />
          </mxGeometry>
        </mxCell>
        <mxCell id="7qDltlr72wTFYklxuotV-43" value="" style="endArrow=classic;html=1;rounded=0;" parent="1" edge="1">
          <mxGeometry width="50" height="50" relative="1" as="geometry">
            <mxPoint x="1068" y="712.25" as="sourcePoint" />
            <mxPoint x="1068" y="851.25" as="targetPoint" />
          </mxGeometry>
        </mxCell>
        <mxCell id="7qDltlr72wTFYklxuotV-44" value="" style="endArrow=classic;html=1;rounded=0;entryX=0.5;entryY=0;entryDx=0;entryDy=0;" parent="1" target="7qDltlr72wTFYklxuotV-3" edge="1">
          <mxGeometry width="50" height="50" relative="1" as="geometry">
            <mxPoint x="1070" y="572.25" as="sourcePoint" />
            <mxPoint x="1068" y="679.25" as="targetPoint" />
          </mxGeometry>
        </mxCell>
        <mxCell id="7qDltlr72wTFYklxuotV-45" value="" style="endArrow=classic;html=1;rounded=0;" parent="1" edge="1">
          <mxGeometry width="50" height="50" relative="1" as="geometry">
            <mxPoint x="1419" y="564.75" as="sourcePoint" />
            <mxPoint x="1418" y="631.25" as="targetPoint" />
          </mxGeometry>
        </mxCell>
        <mxCell id="7qDltlr72wTFYklxuotV-46" value="" style="endArrow=none;html=1;rounded=0;entryX=0.087;entryY=0.024;entryDx=0;entryDy=0;entryPerimeter=0;" parent="1" target="7qDltlr72wTFYklxuotV-16" edge="1" source="7qDltlr72wTFYklxuotV-22">
          <mxGeometry width="50" height="50" relative="1" as="geometry">
            <mxPoint x="190" y="773.5" as="sourcePoint" />
            <mxPoint x="1530" y="768.5" as="targetPoint" />
          </mxGeometry>
        </mxCell>
        <mxCell id="7qDltlr72wTFYklxuotV-47" value="" style="endArrow=classic;html=1;rounded=0;entryX=0.59;entryY=0.025;entryDx=0;entryDy=0;entryPerimeter=0;exitX=0.463;exitY=1.033;exitDx=0;exitDy=0;exitPerimeter=0;" parent="1" source="7qDltlr72wTFYklxuotV-39" target="BENiIRmYBRF5UTRzjcfX-3" edge="1">
          <mxGeometry width="50" height="50" relative="1" as="geometry">
            <mxPoint x="731" y="402.5" as="sourcePoint" />
            <mxPoint x="680" y="482.5" as="targetPoint" />
          </mxGeometry>
        </mxCell>
        <mxCell id="7qDltlr72wTFYklxuotV-48" value="" style="endArrow=classic;html=1;rounded=0;entryX=0.5;entryY=0;entryDx=0;entryDy=0;exitX=0.471;exitY=1.015;exitDx=0;exitDy=0;exitPerimeter=0;" parent="1" source="BENiIRmYBRF5UTRzjcfX-3" target="BENiIRmYBRF5UTRzjcfX-11" edge="1">
          <mxGeometry width="50" height="50" relative="1" as="geometry">
            <mxPoint x="672" y="577.5" as="sourcePoint" />
            <mxPoint x="670" y="655.5" as="targetPoint" />
          </mxGeometry>
        </mxCell>
        <mxCell id="7qDltlr72wTFYklxuotV-49" value="" style="endArrow=classic;html=1;rounded=0;exitX=0.5;exitY=1;exitDx=0;exitDy=0;entryX=0.5;entryY=0;entryDx=0;entryDy=0;" parent="1" source="BENiIRmYBRF5UTRzjcfX-2" target="BENiIRmYBRF5UTRzjcfX-7" edge="1">
          <mxGeometry width="50" height="50" relative="1" as="geometry">
            <mxPoint x="940" y="740" as="sourcePoint" />
            <mxPoint x="990" y="690" as="targetPoint" />
          </mxGeometry>
        </mxCell>
        <mxCell id="7qDltlr72wTFYklxuotV-50" value="" style="endArrow=classic;html=1;rounded=0;exitX=0.477;exitY=1.028;exitDx=0;exitDy=0;entryX=0.5;entryY=0;entryDx=0;entryDy=0;exitPerimeter=0;" parent="1" source="BENiIRmYBRF5UTRzjcfX-2" target="BENiIRmYBRF5UTRzjcfX-10" edge="1">
          <mxGeometry width="50" height="50" relative="1" as="geometry">
            <mxPoint x="190" y="428" as="sourcePoint" />
            <mxPoint x="120" y="485" as="targetPoint" />
          </mxGeometry>
        </mxCell>
        <mxCell id="7qDltlr72wTFYklxuotV-51" value="" style="endArrow=classic;html=1;rounded=0;entryX=0.5;entryY=0;entryDx=0;entryDy=0;exitX=0.5;exitY=1;exitDx=0;exitDy=0;" parent="1" source="7qDltlr72wTFYklxuotV-72" target="BENiIRmYBRF5UTRzjcfX-2" edge="1">
          <mxGeometry width="50" height="50" relative="1" as="geometry">
            <mxPoint x="420" y="240" as="sourcePoint" />
            <mxPoint x="120" y="485" as="targetPoint" />
          </mxGeometry>
        </mxCell>
        <mxCell id="7qDltlr72wTFYklxuotV-52" value="" style="endArrow=classic;html=1;rounded=0;entryX=0.5;entryY=0;entryDx=0;entryDy=0;" parent="1" target="7qDltlr72wTFYklxuotV-39" edge="1">
          <mxGeometry width="50" height="50" relative="1" as="geometry">
            <mxPoint x="500" y="200" as="sourcePoint" />
            <mxPoint x="190" y="368" as="targetPoint" />
          </mxGeometry>
        </mxCell>
        <mxCell id="_kUi8R_1Q5Sy-OY733J1-4" style="edgeStyle=orthogonalEdgeStyle;rounded=0;orthogonalLoop=1;jettySize=auto;html=1;exitX=0;exitY=0.5;exitDx=0;exitDy=0;" edge="1" parent="1" source="7qDltlr72wTFYklxuotV-53" target="7qDltlr72wTFYklxuotV-22">
          <mxGeometry relative="1" as="geometry">
            <Array as="points">
              <mxPoint x="30" y="-40" />
              <mxPoint x="30" y="757" />
            </Array>
          </mxGeometry>
        </mxCell>
        <mxCell id="7qDltlr72wTFYklxuotV-53" value="" style="rounded=0;whiteSpace=wrap;html=1;" parent="1" vertex="1">
          <mxGeometry x="450" y="-70" width="120" height="60" as="geometry" />
        </mxCell>
        <mxCell id="7qDltlr72wTFYklxuotV-54" value="Landing&amp;nbsp;&lt;br&gt;Zone" style="text;html=1;strokeColor=none;fillColor=none;align=center;verticalAlign=middle;whiteSpace=wrap;rounded=0;" parent="1" vertex="1">
          <mxGeometry x="470" y="-55" width="60" height="30" as="geometry" />
        </mxCell>
        <mxCell id="7qDltlr72wTFYklxuotV-55" value="" style="shape=flexArrow;endArrow=classic;html=1;rounded=0;exitX=0.5;exitY=1;exitDx=0;exitDy=0;entryX=0.458;entryY=-0.024;entryDx=0;entryDy=0;entryPerimeter=0;" parent="1" source="BENiIRmYBRF5UTRzjcfX-1" target="7qDltlr72wTFYklxuotV-53" edge="1">
          <mxGeometry width="50" height="50" relative="1" as="geometry">
            <mxPoint x="900" y="350" as="sourcePoint" />
            <mxPoint x="950" y="300" as="targetPoint" />
          </mxGeometry>
        </mxCell>
        <mxCell id="7qDltlr72wTFYklxuotV-56" value="" style="shape=flexArrow;endArrow=classic;html=1;rounded=0;exitX=0.5;exitY=1;exitDx=0;exitDy=0;entryX=0.516;entryY=-0.062;entryDx=0;entryDy=0;entryPerimeter=0;" parent="1" source="7qDltlr72wTFYklxuotV-53" target="BENiIRmYBRF5UTRzjcfX-16" edge="1">
          <mxGeometry width="50" height="50" relative="1" as="geometry">
            <mxPoint x="515" y="-120" as="sourcePoint" />
            <mxPoint x="515" y="-61" as="targetPoint" />
          </mxGeometry>
        </mxCell>
        <mxCell id="7qDltlr72wTFYklxuotV-58" value="" style="rounded=0;whiteSpace=wrap;html=1;" parent="1" vertex="1">
          <mxGeometry x="440" y="-290" width="120" height="60" as="geometry" />
        </mxCell>
        <mxCell id="7qDltlr72wTFYklxuotV-59" value="Managementt&lt;br&gt;Account" style="text;html=1;strokeColor=none;fillColor=none;align=center;verticalAlign=middle;whiteSpace=wrap;rounded=0;" parent="1" vertex="1">
          <mxGeometry x="470" y="-277.5" width="60" height="35" as="geometry" />
        </mxCell>
        <mxCell id="7qDltlr72wTFYklxuotV-63" value="audit-UG" style="rounded=0;whiteSpace=wrap;html=1;" parent="1" vertex="1">
          <mxGeometry x="630" y="860" width="120" height="60" as="geometry" />
        </mxCell>
        <mxCell id="7qDltlr72wTFYklxuotV-65" value="" style="endArrow=classic;html=1;rounded=0;entryX=0.5;entryY=0;entryDx=0;entryDy=0;exitX=0.631;exitY=0.959;exitDx=0;exitDy=0;exitPerimeter=0;" parent="1" source="7qDltlr72wTFYklxuotV-22" target="7qDltlr72wTFYklxuotV-63" edge="1">
          <mxGeometry width="50" height="50" relative="1" as="geometry">
            <mxPoint x="576" y="826" as="sourcePoint" />
            <mxPoint x="531" y="858.5" as="targetPoint" />
          </mxGeometry>
        </mxCell>
        <mxCell id="7qDltlr72wTFYklxuotV-67" value="" style="endArrow=classic;html=1;rounded=0;entryX=0.75;entryY=0.1;entryDx=0;entryDy=0;exitX=0.5;exitY=1;exitDx=0;exitDy=0;entryPerimeter=0;" parent="1" source="7qDltlr72wTFYklxuotV-12" target="BENiIRmYBRF5UTRzjcfX-27" edge="1">
          <mxGeometry width="50" height="50" relative="1" as="geometry">
            <mxPoint x="355" y="820" as="sourcePoint" />
            <mxPoint x="309" y="886" as="targetPoint" />
          </mxGeometry>
        </mxCell>
        <mxCell id="7qDltlr72wTFYklxuotV-68" value="" style="endArrow=classic;html=1;rounded=0;entryX=0.5;entryY=0;entryDx=0;entryDy=0;entryPerimeter=0;" parent="1" target="7qDltlr72wTFYklxuotV-23" edge="1">
          <mxGeometry width="50" height="50" relative="1" as="geometry">
            <mxPoint x="510" y="910" as="sourcePoint" />
            <mxPoint x="358" y="958" as="targetPoint" />
          </mxGeometry>
        </mxCell>
        <mxCell id="7qDltlr72wTFYklxuotV-69" value="" style="endArrow=classic;html=1;rounded=0;entryX=0.5;entryY=0;entryDx=0;entryDy=0;entryPerimeter=0;exitX=0.5;exitY=1;exitDx=0;exitDy=0;" parent="1" source="7qDltlr72wTFYklxuotV-63" target="7qDltlr72wTFYklxuotV-24" edge="1">
          <mxGeometry width="50" height="50" relative="1" as="geometry">
            <mxPoint x="660" y="939.5" as="sourcePoint" />
            <mxPoint x="671" y="979.5" as="targetPoint" />
          </mxGeometry>
        </mxCell>
        <mxCell id="7qDltlr72wTFYklxuotV-72" value="" style="rounded=0;whiteSpace=wrap;html=1;" parent="1" vertex="1">
          <mxGeometry x="445" y="140" width="120" height="60" as="geometry" />
        </mxCell>
        <mxCell id="7qDltlr72wTFYklxuotV-73" value="ROOT" style="text;html=1;strokeColor=none;fillColor=none;align=center;verticalAlign=middle;whiteSpace=wrap;rounded=0;" parent="1" vertex="1">
          <mxGeometry x="475" y="150" width="60" height="30" as="geometry" />
        </mxCell>
        <mxCell id="7qDltlr72wTFYklxuotV-75" value="" style="endArrow=classic;html=1;rounded=0;entryX=0.533;entryY=0.01;entryDx=0;entryDy=0;exitX=0.5;exitY=1;exitDx=0;exitDy=0;entryPerimeter=0;" parent="1" source="BENiIRmYBRF5UTRzjcfX-16" target="7qDltlr72wTFYklxuotV-72" edge="1">
          <mxGeometry width="50" height="50" relative="1" as="geometry">
            <mxPoint x="515" y="210" as="sourcePoint" />
            <mxPoint x="190" y="368" as="targetPoint" />
          </mxGeometry>
        </mxCell>
        <mxCell id="7qDltlr72wTFYklxuotV-76" value="" style="endArrow=classic;html=1;rounded=0;exitX=0.5;exitY=1;exitDx=0;exitDy=0;" parent="1" source="BENiIRmYBRF5UTRzjcfX-7" target="BENiIRmYBRF5UTRzjcfX-15" edge="1">
          <mxGeometry width="50" height="50" relative="1" as="geometry">
            <mxPoint x="190" y="428" as="sourcePoint" />
            <mxPoint x="120" y="485" as="targetPoint" />
          </mxGeometry>
        </mxCell>
        <mxCell id="7qDltlr72wTFYklxuotV-77" value="sleekydot+6@gmail.com" style="text;html=1;strokeColor=none;fillColor=none;align=center;verticalAlign=middle;whiteSpace=wrap;rounded=0;" parent="1" vertex="1">
          <mxGeometry x="640" y="1080" width="60" height="30" as="geometry" />
        </mxCell>
        <mxCell id="7qDltlr72wTFYklxuotV-79" value="" style="endArrow=classic;html=1;rounded=0;exitX=0.413;exitY=1.029;exitDx=0;exitDy=0;exitPerimeter=0;entryX=0.5;entryY=0;entryDx=0;entryDy=0;entryPerimeter=0;" parent="1" source="7qDltlr72wTFYklxuotV-63" target="7qDltlr72wTFYklxuotV-80" edge="1">
          <mxGeometry width="50" height="50" relative="1" as="geometry">
            <mxPoint x="700" y="930" as="sourcePoint" />
            <mxPoint x="670" y="960" as="targetPoint" />
          </mxGeometry>
        </mxCell>
        <mxCell id="7qDltlr72wTFYklxuotV-80" value="Ayo&lt;br&gt;User" style="shape=umlActor;verticalLabelPosition=bottom;verticalAlign=top;html=1;outlineConnect=0;" parent="1" vertex="1">
          <mxGeometry x="655" y="989.5" width="30" height="60" as="geometry" />
        </mxCell>
        <mxCell id="7qDltlr72wTFYklxuotV-90" value="sleekydot+5@gmail.com" style="text;html=1;strokeColor=none;fillColor=none;align=center;verticalAlign=middle;whiteSpace=wrap;rounded=0;" parent="1" vertex="1">
          <mxGeometry x="684" y="782.5" width="180" height="30" as="geometry" />
        </mxCell>
        <mxCell id="7qDltlr72wTFYklxuotV-91" value="ejikememekus+3@gmail.com" style="text;whiteSpace=wrap;html=1;" parent="1" vertex="1">
          <mxGeometry x="326" y="782.5" width="180" height="40" as="geometry" />
        </mxCell>
        <mxCell id="7qDltlr72wTFYklxuotV-92" value="ejikememekus+4@gmail.com" style="text;whiteSpace=wrap;html=1;" parent="1" vertex="1">
          <mxGeometry x="740" y="1035" width="180" height="40" as="geometry" />
        </mxCell>
        <mxCell id="_kUi8R_1Q5Sy-OY733J1-1" value="" style="endArrow=none;html=1;rounded=0;" edge="1" parent="1" target="7qDltlr72wTFYklxuotV-22">
          <mxGeometry width="50" height="50" relative="1" as="geometry">
            <mxPoint x="190" y="773.5" as="sourcePoint" />
            <mxPoint x="1545" y="769" as="targetPoint" />
          </mxGeometry>
        </mxCell>
        <mxCell id="7qDltlr72wTFYklxuotV-22" value="" style="shape=image;html=1;verticalAlign=top;verticalLabelPosition=bottom;labelBackgroundColor=#ffffff;imageAspect=0;aspect=fixed;image=https://cdn1.iconfinder.com/data/icons/unicons-line-vol-5/24/okta-128.png" parent="1" vertex="1">
          <mxGeometry x="496" y="740.5" width="58" height="58" as="geometry" />
        </mxCell>
        <mxCell id="_kUi8R_1Q5Sy-OY733J1-5" value="" style="endArrow=classic;html=1;rounded=0;exitX=0.473;exitY=1.002;exitDx=0;exitDy=0;exitPerimeter=0;" edge="1" parent="1" source="BENiIRmYBRF5UTRzjcfX-11">
          <mxGeometry width="50" height="50" relative="1" as="geometry">
            <mxPoint x="672" y="689.75" as="sourcePoint" />
            <mxPoint x="320" y="750" as="targetPoint" />
            <Array as="points">
              <mxPoint x="320" y="690" />
            </Array>
          </mxGeometry>
        </mxCell>
        <mxCell id="_kUi8R_1Q5Sy-OY733J1-6" value="" style="endArrow=classic;html=1;rounded=0;" edge="1" parent="1">
          <mxGeometry width="50" height="50" relative="1" as="geometry">
            <mxPoint x="440" y="-260" as="sourcePoint" />
            <mxPoint x="130" y="-40" as="targetPoint" />
          </mxGeometry>
        </mxCell>
      </root>
    </mxGraphModel>
  </diagram>
</mxfile>
